<?xml version="1.0" standalone="no"?>
<svg xmlns="http://www.w3.org/2000/svg" width="148.4" height="28.68" viewBox="0 0 148.4 28.68"><g fill="#ff0a54" color="#ff0a54" transform="translate(0 0) scale(0.5515385)"><svg width="52.0" height="52.0" x="0.0" y="0.0" viewBox="0 0 52 52"><path fill="currentColor" fill-rule="evenodd" d="M18.22 33.35s9.278 9.366 25.673 11.515a26.024 26.024 0 0 1-4.652 3.512l-.054.034a25.875 25.875 0 0 1-13.82 3.58 26.054 26.054 0 0 1-4.701-.545c-.167-.035-.333-.078-.5-.116-2.487-6.099-2.5-12.173-2.247-15.465.12-1.574.301-2.515.301-2.515zM15.745 22.9S12.273 35.616 18.61 50.89a26.12 26.12 0 0 1-5.368-2.273l-.055-.03A25.865 25.865 0 0 1 3.175 38.408a26.147 26.147 0 0 1-1.878-4.343c-.054-.163-.099-.328-.15-.492 4.038-5.202 9.293-8.25 12.27-9.678 1.423-.683 2.328-.997 2.328-.997zm35.536-2.96c.445 1.86.695 3.795.716 5.786l.002.064a25.868 25.868 0 0 1-3.81 13.76 26.134 26.134 0 0 1-2.821 3.797c-.115.127-.235.249-.352.374-6.524-.895-11.79-3.921-14.516-5.786-1.302-.892-2.026-1.517-2.026-1.517S41.223 33.065 51.28 19.94zM6.983 8.25c6.525.895 11.792 3.922 14.517 5.786 1.302.89 2.026 1.517 2.026 1.517S10.778 18.904.718 32.028a26.047 26.047 0 0 1-.715-5.784L0 26.181A25.871 25.871 0 0 1 3.81 12.42a26.18 26.18 0 0 1 2.822-3.797c.114-.128.235-.25.351-.375zM33.39 1.07a26.021 26.021 0 0 1 5.368 2.272l.055.03a25.864 25.864 0 0 1 10.012 10.18 25.98 25.98 0 0 1 1.878 4.342c.053.163.098.327.149.492-4.038 5.203-9.292 8.25-12.27 9.678-1.422.682-2.327.997-2.327.997s3.471-12.719-2.865-27.991zM26.134 0l.503.007c1.582.04 3.157.221 4.7.545.167.036.333.079.5.117 2.487 6.098 2.499 12.172 2.247 15.465-.12 1.573-.301 2.515-.301 2.515S24.506 9.283 8.11 7.135a26.1 26.1 0 0 1 4.651-3.513c.019-.01.036-.023.055-.033A25.877 25.877 0 0 1 26.637.009z"></path></svg></g><path fill="#ff0a54" fill-rule="nonzero" d="M4.68 28.28L0.20 28.28Q0 28.28 0 28.08L0 28.08L0.08 0.60Q0.08 0.44 0.24 0.44L0.24 0.44L7.92 0.44Q11.60 0.44 13.74 2.68Q15.88 4.92 15.88 8.76L15.88 8.76Q15.88 11.60 14.76 13.68Q13.64 15.76 11.84 16.88Q10.04 18 7.92 18L7.92 18L4.88 18L4.88 28.08Q4.88 28.28 4.68 28.28L4.68 28.28ZM4.88 5.24L4.88 13.16L7.92 13.16Q9.20 13.16 10.14 11.94Q11.08 10.72 11.08 8.76L11.08 8.76Q11.08 7.20 10.24 6.20Q9.40 5.20 7.92 5.20L7.92 5.20L4.88 5.24ZM22.96 28.28L18.44 28.28Q18.28 28.28 18.28 28.08L18.28 28.08L18.32 0.60Q18.32 0.44 18.52 0.44L18.52 0.44L22.96 0.44Q23.16 0.44 23.16 0.60L23.16 0.60L23.12 11.48L29.12 11.48L29.12 0.60Q29.12 0.44 29.28 0.44L29.28 0.44L33.72 0.44Q33.92 0.44 33.92 0.60L33.92 0.60L34 28.08Q34 28.28 33.80 28.28L33.80 28.28L29.32 28.28Q29.12 28.28 29.12 28.08L29.12 28.08L29.12 16.32L23.12 16.32L23.12 28.08Q23.12 28.28 22.96 28.28L22.96 28.28ZM44.68 28.68L44.68 28.68Q42.52 28.68 40.74 27.58Q38.96 26.48 37.88 24.66Q36.80 22.84 36.80 20.64L36.80 20.64L36.84 7.96Q36.84 5.76 37.90 3.96Q38.96 2.16 40.76 1.08Q42.56 0 44.68 0L44.68 0Q46.84 0 48.60 1.08Q50.36 2.16 51.42 3.96Q52.48 5.76 52.48 7.96L52.48 7.96L52.52 20.64Q52.52 22.84 51.46 24.66Q50.40 26.48 48.62 27.58Q46.84 28.68 44.68 28.68ZM44.68 23.84L44.68 23.84Q45.88 23.84 46.78 22.86Q47.68 21.88 47.68 20.64L47.68 20.64L47.64 7.96Q47.64 6.64 46.80 5.72Q45.96 4.80 44.68 4.80L44.68 4.80Q43.44 4.80 42.56 5.70Q41.68 6.60 41.68 7.96L41.68 7.96L41.68 20.64Q41.68 21.96 42.56 22.90Q43.44 23.84 44.68 23.84ZM63.56 28.28L59.04 28.28Q58.88 28.28 58.88 28.08L58.88 28.08L58.88 5.28L53.68 5.28Q53.48 5.28 53.48 5.08L53.48 5.08L53.52 0.60Q53.52 0.44 53.68 0.44L53.68 0.44L68.88 0.44Q69.08 0.44 69.08 0.60L69.08 0.60L69.08 5.08Q69.08 5.28 68.92 5.28L68.92 5.28L63.68 5.28L63.72 28.08Q63.72 28.28 63.56 28.28L63.56 28.28ZM77.56 28.68L77.56 28.68Q75.40 28.68 73.62 27.58Q71.84 26.48 70.76 24.66Q69.68 22.84 69.68 20.64L69.68 20.64L69.72 7.96Q69.72 5.76 70.78 3.96Q71.84 2.16 73.64 1.08Q75.44 0 77.56 0L77.56 0Q79.72 0 81.48 1.08Q83.24 2.16 84.30 3.96Q85.36 5.76 85.36 7.96L85.36 7.96L85.40 20.64Q85.40 22.84 84.34 24.66Q83.28 26.48 81.50 27.58Q79.72 28.68 77.56 28.68ZM77.56 23.84L77.56 23.84Q78.76 23.84 79.66 22.86Q80.56 21.88 80.56 20.64L80.56 20.64L80.52 7.96Q80.52 6.64 79.68 5.72Q78.84 4.80 77.56 4.80L77.56 4.80Q76.32 4.80 75.44 5.70Q74.56 6.60 74.56 7.96L74.56 7.96L74.56 20.64Q74.56 21.96 75.44 22.90Q76.32 23.84 77.56 23.84ZM93.12 28.28L88.60 28.28Q88.44 28.28 88.44 28.08L88.44 28.08L88.52 0.60Q88.52 0.44 88.68 0.44L88.68 0.44L96.76 0.44Q98.92 0.44 100.74 1.50Q102.56 2.56 103.64 4.34Q104.72 6.12 104.72 8.36L104.72 8.36Q104.72 9.84 104.28 11.02Q103.84 12.20 103.24 13.02Q102.64 13.84 102.16 14.24L102.16 14.24Q104.32 16.64 104.32 19.88L104.32 19.88L104.36 28.08Q104.36 28.28 104.16 28.28L104.16 28.28L99.64 28.28Q99.48 28.28 99.48 28.16L99.48 28.16L99.48 19.88Q99.48 18.44 98.46 17.38Q97.44 16.32 95.96 16.32L95.96 16.32L93.32 16.32L93.28 28.08Q93.28 28.28 93.12 28.28L93.12 28.28ZM93.32 5.24L93.32 11.52L96.76 11.52Q98 11.52 98.96 10.60Q99.92 9.68 99.92 8.36L99.92 8.36Q99.92 7.08 98.98 6.16Q98.04 5.24 96.76 5.24L96.76 5.24L93.32 5.24Z" transform="translate(43.68 0) scale(1)"></path></svg>